# xmcd
# 
# Track frame offsets:
#     182
#     21102
#     36402
#     56265
#     74012
#     89952
#     107535
#     119130
#     133157
#     147340
#     161505
#     174837
#     190330
#     203927
#     219400
#     235842
#     256120
#     273637
#     292617
#     318060
# 
# Disc length: 4349
# 
# Revision: 7
# Processed by: cddbd v1.5.2PL0 Copyright (c) Steve Scherf et al.
# Submitted via: fre:ac v1.0.31
# 
DISCID=2d10fb14
DTITLE=Nitty Gritty Dirt Band, The - Will The Circle Be Unbroken: Volume Two
DYEAR=1989
DGENRE=Folklore
TTITLE0=Life's Railway To Heaven
TTITLE1=Grandpa Was A Carpenter
TTITLE2=When I Get My Rewards
TTITLE3=Don't You Hear Jerusalem Moan
TTITLE4=Little Mountain Church House
TTITLE5=And So It Goes
TTITLE6=When It's Gone
TTITLE7=Mary Danced with Soldiers
TTITLE8=Riding Alone
TTITLE9=I'm Sittin' On Top Of The World
TTITLE10=Lovin' On The Side
TTITLE11=Lost River
TTITLE12=Bayou Jubilee
TTITLE13=Blues Berry Hill (Instrumental)
TTITLE14=Turn Of The Century
TTITLE15=One Step Over The Line
TTITLE16=You Ain't Going Nowhere
TTITLE17=The Valley Road
TTITLE18=Will The Circle Be Unbroken
TTITLE19=Amazing Grace
EXTD=YEAR: 1989
EXTT0=
EXTT1=
EXTT2=
EXTT3=
EXTT4=
EXTT5=
EXTT6=
EXTT7=
EXTT8=
EXTT9=
EXTT10=
EXTT11=
EXTT12=
EXTT13=
EXTT14=
EXTT15=
EXTT16=
EXTT17=
EXTT18=
EXTT19=
PLAYORDER=
